<?xml version="1.0" encoding="UTF-8"?>
<svg version="1.1" xmlns="http://www.w3.org/2000/svg" width="1024" height="1024">

<path d="M0 0 C63.88096734 0 63.88096734 0 81.81640625 17.58203125 C93.79797051 30.84963103 95.93152511 47.09658916 95.30859375 64.4453125 C94.55407119 77.55413514 89.27026264 91.86944013 80.1875 101.625 C58.28438382 120.97133219 26.71267625 116 0 116 C0 77.72 0 39.44 0 0 Z " fill="#253864" transform="translate(202,393)"/>
<path d="M0 0 C0.928125 0.721875 1.85625 1.44375 2.8125 2.1875 C3.73095703 2.87392578 3.73095703 2.87392578 4.66796875 3.57421875 C14.62571648 11.52886055 20.20837783 21.85192875 22.8125 34.1875 C23.34404075 39.03886163 23.30927695 43.89915886 23.22412109 48.77294922 C23.18729924 50.94936646 23.18310559 53.12408252 23.18359375 55.30078125 C23.10176013 71.63228402 18.9511416 86.91533796 7.375 99.0625 C-2.22878906 107.95644378 -13.86789044 109.78132837 -26.64453125 109.46875 C-37.52159934 108.60530027 -46.99677031 103.94406465 -54.4375 95.9375 C-68.83516486 78.51487121 -69.39644584 57.96203287 -68.1875 36.1875 C-66.71003008 22.7024137 -60.69840044 10.8783311 -50.1875 2.1875 C-35.61706541 -8.96894155 -15.59375387 -8.86703651 0 0 Z " fill="#6B51BD" transform="translate(785.1875,402.8125)"/>
<path d="M0 0 C-0.11493757 1.89646998 -0.24239642 3.79218332 -0.375 5.6875 C-0.44460938 6.74324219 -0.51421875 7.79898437 -0.5859375 8.88671875 C-0.98760089 11.90677269 -1.74069019 14.24078054 -3 17 C-3.60585938 16.80664062 -4.21171875 16.61328125 -4.8359375 16.4140625 C-16.43862263 12.80830497 -29.75174917 8.78095038 -41.4375 14 C-46.27917941 16.77453382 -49.15176816 20.26871787 -52 25 C-52.86625 26.3303125 -52.86625 26.3303125 -53.75 27.6875 C-55.73583242 32.94995592 -56.29871786 38.43924518 -57 44 C-56.071875 43.0925 -55.14375 42.185 -54.1875 41.25 C-45.83359786 34.25526448 -36.1039724 32.94489547 -25.51953125 33.4296875 C-16.46176157 34.27110916 -8.77404205 38.72115914 -2.4375 45.1875 C4.9738297 54.62299932 7.22856328 64.15118967 6 76 C4.28056484 86.8803602 -0.96276925 95.26131801 -9.42578125 102.26953125 C-20.03794535 109.40335325 -33.68357785 109.19896652 -46 108 C-56.88761592 105.84427627 -65.66130512 98.96693422 -72 90 C-78.24915314 78.82426581 -79.37332756 68.04672996 -79.37060547 55.50878906 C-79.37496479 53.26809815 -79.41133856 51.02940487 -79.44921875 48.7890625 C-79.5608291 34.68739697 -76.39981495 23.54045372 -68 12 C-67.56171875 11.35417969 -67.1234375 10.70835937 -66.671875 10.04296875 C-61.14384975 2.66671819 -50.96211385 -3.39003035 -42.03125 -5.59375 C-27.71339056 -7.51263838 -13.10717831 -6.55358916 0 0 Z " fill="#6B50BD" transform="translate(704,403)"/>
<path d="M0 0 C7.11965561 5.75548802 10.23439389 12.40260739 11.578125 21.35546875 C11.83195445 25.66189878 11.8119273 29.95298342 11.7734375 34.265625 C11.7706076 35.47367294 11.76777771 36.68172089 11.76486206 37.92637634 C11.75373267 41.75701103 11.72864123 45.5874056 11.703125 49.41796875 C11.69308585 52.02668931 11.68396164 54.63541357 11.67578125 57.24414062 C11.65381701 63.61467482 11.61933709 69.98503117 11.578125 76.35546875 C5.308125 76.35546875 -0.961875 76.35546875 -7.421875 76.35546875 C-7.916875 72.39546875 -7.916875 72.39546875 -8.421875 68.35546875 C-9.7521875 69.68578125 -9.7521875 69.68578125 -11.109375 71.04296875 C-18.83908658 77.59067212 -28.33749643 80.22021182 -38.34765625 79.7734375 C-47.17674973 78.57303978 -54.17157366 74.63996805 -59.73828125 67.71875 C-63.74086611 61.28951091 -63.18032375 53.63657671 -62.421875 46.35546875 C-60.95521129 40.13914575 -57.03636041 36.73153249 -52.12890625 32.8984375 C-44.91797286 28.78830952 -38.18181664 27.91357546 -29.984375 28.10546875 C-29.10716797 28.110625 -28.22996094 28.11578125 -27.32617188 28.12109375 C-21.31489156 28.19197104 -15.39203815 28.66527648 -9.421875 29.35546875 C-9.58730812 22.50726347 -9.58730812 22.50726347 -12.421875 16.41796875 C-19.10936363 11.82032031 -26.39179677 10.19648839 -34.421875 11.35546875 C-38.96054989 12.46016509 -43.41057706 13.84343712 -47.859375 15.26171875 C-51.421875 16.35546875 -51.421875 16.35546875 -53.421875 16.35546875 C-54.42648031 14.23264206 -55.42543102 12.10713854 -56.421875 9.98046875 C-56.97875 8.79710937 -57.535625 7.61375 -58.109375 6.39453125 C-59.421875 3.35546875 -59.421875 3.35546875 -59.421875 1.35546875 C-57.47058193 0.38288067 -55.51036024 -0.57179819 -53.546875 -1.51953125 C-52.45632813 -2.05320312 -51.36578125 -2.586875 -50.2421875 -3.13671875 C-34.97611071 -9.70804572 -13.84393046 -9.40047536 0 0 Z " fill="#273A67" transform="translate(449.421875,431.64453125)"/>
<path d="M0 0 C2.24730256 2.52443628 4.21068064 5.13366993 6 8 C6.37769531 8.60070312 6.75539063 9.20140625 7.14453125 9.8203125 C9.38233836 15.5221224 9.11676677 24.1578315 6.875 29.875 C6.25625 30.90625 5.6375 31.9375 5 33 C4.44892578 33.98033203 4.44892578 33.98033203 3.88671875 34.98046875 C-0.24229759 41.47240299 -6.08040508 44.04405654 -13 47 C-12.29875 47.20753906 -11.5975 47.41507812 -10.875 47.62890625 C-1.61646094 50.63541554 5.32403989 55.20919499 10 64 C12.38384426 73.13806965 11.04314878 81.10877608 6.78125 89.359375 C1.12828213 98.71817736 -7.64130253 103.22627019 -18 106 C-22.33100333 106.50859674 -26.58156762 106.51707213 -30.9375 106.4375 C-32.02740234 106.44458984 -33.11730469 106.45167969 -34.24023438 106.45898438 C-44.26052669 106.38158461 -53.43602865 104.41220305 -62.625 100.375 C-63.60726562 99.94960938 -64.58953125 99.52421875 -65.6015625 99.0859375 C-67.07977049 98.41665115 -68.54864392 97.72567804 -70 97 C-69.5464821 89.97047248 -67.87940913 84.4150557 -65 78 C-61.46959582 79.08627821 -58.14968546 80.37094352 -54.8125 81.9375 C-43.83932724 86.8287139 -32.01135902 89.5352967 -20.375 85.25 C-16.84238813 83.77123224 -15.04546999 82.24795841 -13 79 C-11.35465172 74.06395517 -11.32718464 69.16262081 -12.875 64.1875 C-21.19307089 55.62477997 -34.97175092 57.20309851 -46 57 C-46 50.73 -46 44.46 -46 38 C-44.6490625 37.96261719 -43.298125 37.92523438 -41.90625 37.88671875 C-40.10414085 37.82101685 -38.30205871 37.75457101 -36.5 37.6875 C-35.613125 37.66494141 -34.72625 37.64238281 -33.8125 37.61914062 C-27.9397289 37.38163885 -23.28812683 36.64991311 -18 34 C-14.98679759 30.47365816 -14.56827319 27.50409237 -14.5625 22.9375 C-14.54316406 21.91527344 -14.52382813 20.89304687 -14.50390625 19.83984375 C-15.12246594 16.29895484 -16.21516403 15.20507474 -19 13 C-30.5550109 7.32385429 -42.51690032 10.17230011 -54.26953125 14.08984375 C-56.86182209 15.02493197 -59.43685741 15.98809802 -62 17 C-64.33088789 14.12145363 -65.83224797 11.38015172 -67.1875 7.9375 C-67.53167969 7.08027344 -67.87585938 6.22304688 -68.23046875 5.33984375 C-69 3 -69 3 -69 0 C-49.30357591 -9.41874115 -18.57950702 -16.46230738 0 0 Z " fill="#684DBB" transform="translate(606,405)"/>
<path d="M0 0 C6.80690738 5.78709996 11.9109393 12.25105007 13.8125 21.125 C14.19157332 27.94831974 14.0625 34.79115856 14.0625 41.625 C-4.0875 41.625 -22.2375 41.625 -40.9375 41.625 C-37.71041545 52.80292079 -37.71041545 52.80292079 -29.5625 60 C-23.09192096 62.86362726 -14.68691907 63.36887067 -8.01855469 60.92041016 C-5.01654445 59.52443621 -2.26591428 57.90239336 0.55078125 56.15625 C3.0625 54.625 3.0625 54.625 5.0625 54.625 C6.12330085 56.6986559 7.16059524 58.78435086 8.1875 60.875 C8.76757812 62.03515625 9.34765625 63.1953125 9.9453125 64.390625 C11.0625 67.625 11.0625 67.625 10.6171875 69.8515625 C5.12981498 76.11102763 -5.85401456 78.87718857 -13.9375 79.625 C-26.94292529 80.45193456 -37.38194803 78.55891161 -47.9375 70.625 C-56.46745257 62.68332002 -61.77518035 53.2731996 -62.2734375 41.515625 C-62.49994722 27.38988152 -61.61258422 16.57617446 -51.9375 5.625 C-51.38964844 4.9959375 -50.84179688 4.366875 -50.27734375 3.71875 C-37.2333035 -10.30582175 -15.19113685 -11.34305086 0 0 Z " fill="#263966" transform="translate(365.9375,431.375)"/>
<path d="M0 0 C32.58139535 0 32.58139535 0 44.8125 11.6875 C50.04429002 19.60992489 50.48204308 28.74672016 50.375 38 C50.38660156 39.00289063 50.39820313 40.00578125 50.41015625 41.0390625 C50.37052112 51.26492498 48.72062819 60.93583539 41.50390625 68.5859375 C30.23570937 79.25559274 14.53512148 77 0 77 C0 51.59 0 26.18 0 0 Z " fill="#FBFBFC" transform="translate(224,413)"/>
<path d="M0 0 C6.79417645 -0.54259048 10.83671009 1.95091985 15.9375 6.2578125 C23.4747467 13.46735282 24.86543148 23.9044583 25.10546875 33.96484375 C25.34869748 60.87692563 25.34869748 60.87692563 16.265625 71.1484375 C10.42509104 76.47211005 4.50256899 77.87846547 -3.31640625 77.6875 C-9.04250494 76.79152439 -12.3167393 73.4955603 -15.78125 69.0546875 C-24.91292399 55.17812408 -24.82874976 37.45497636 -21.9375 21.5703125 C-19.78466459 12.97918527 -15.46092099 6.19009316 -8.0625 1.2578125 C-5.32969239 0.46833475 -2.80157779 0.35019722 0 0 Z " fill="#FBFAFC" transform="translate(762.0625,415.7421875)"/>
<path d="M0 0 C6.93 0 13.86 0 21 0 C21 38.28 21 76.56 21 116 C14.07 116 7.14 116 0 116 C0 77.72 0 39.44 0 0 Z " fill="#243664" transform="translate(475,393)"/>
<path d="M0 0 C5.39047836 3.14444571 8.94284242 5.6867987 11 11.75 C11.70783414 18.63441425 11.75488075 25.71136715 8 31.75 C4.15569955 36.06931458 -0.33565457 38.42591189 -6.05078125 39.12109375 C-12.18899756 39.24606342 -17.2531952 39.29534208 -22.27734375 35.4765625 C-27.73784904 30.00367511 -30.35841227 24.7843618 -30.625 17 C-30.310085 10.90210055 -28.96159596 7.57240868 -24.50390625 3.32421875 C-18.04324658 -2.39531787 -8.04134794 -3.27346907 0 0 Z " fill="#FAF9FC" transform="translate(678,455.25)"/>
<path d="M0 0 C4.7953125 -0.1546875 4.7953125 -0.1546875 9.6875 -0.3125 C11.18543091 -0.38078003 11.18543091 -0.38078003 12.71362305 -0.45043945 C17.23789172 -0.52109554 19.36164488 -0.46556727 23.1171875 2.2734375 C25.59493438 5.86154398 25.64242951 8.82827421 25 13 C24 16.5 24 16.5 23 19 C23.66 19.515625 24.32 20.03125 25 20.5625 C27 23 27 23 27.5 26.4375 C26.92479238 30.53585432 25.94122812 32.14280697 23 35 C20.11734851 35.96088383 18.32337729 36.11670941 15.33203125 36.09765625 C14.52741455 36.09515869 13.72279785 36.09266113 12.89379883 36.09008789 C11.36855591 36.07643188 11.36855591 36.07643188 9.8125 36.0625 C4.9553125 36.0315625 4.9553125 36.0315625 0 36 C0 24.12 0 12.24 0 0 Z " fill="#293E68" transform="translate(313,555)"/>
<path d="M0 0 C1.65 0 3.3 0 5 0 C5 11.88 5 23.76 5 36 C3.68 36 2.36 36 1 36 C0.67 35.34 0.34 34.68 0 34 C-0.66 34.495 -1.32 34.99 -2 35.5 C-5.75573588 37.37786794 -8.93053421 37.96928675 -13 37 C-16.86985908 34.63797469 -19.55397497 32.33807509 -21 28 C-21.55165147 23.25218 -21.44453763 19.87319891 -19.25 15.5625 C-16.63360524 12.58271708 -14.74273378 11.20863714 -10.78125 10.734375 C-10.0284375 10.73953125 -9.275625 10.7446875 -8.5 10.75 C-7.7471875 10.74484375 -6.994375 10.7396875 -6.21875 10.734375 C-4 11 -4 11 0 13 C0 8.71 0 4.42 0 0 Z " fill="#31436D" transform="translate(630,555)"/>
<path d="M0 0 C4.19300455 1.76239833 6.17529606 4.16439727 8.75 7.875 C9.183125 8.49375 9.61625 9.1125 10.0625 9.75 C10.75 11.875 10.75 11.875 10.75 19.875 C-1.79 19.875 -14.33 19.875 -27.25 19.875 C-25.83355376 9.95987635 -22.96860666 5.82373507 -15.25 -0.125 C-10.66467135 -2.41766433 -4.74368881 -1.53313137 0 0 Z " fill="#F2F3F6" transform="translate(351.25,440.125)"/>
<path d="M0 0 C0.75539063 -0.00386719 1.51078125 -0.00773437 2.2890625 -0.01171875 C6.20085931 -0.00487994 9.80521219 0.16624848 13.625 1.125 C14.65698668 12.7635164 14.65698668 12.7635164 11.0625 17.1875 C5.04007941 22.91648479 -0.47471317 23.46084192 -8.5078125 23.5234375 C-11.85440218 23.05838008 -13.69817409 22.17198452 -16.375 20.125 C-18.66850612 16.68824771 -18.96538834 13.44003313 -18.8984375 9.3828125 C-18.08096944 5.85671893 -16.00780443 4.3384373 -13.19921875 2.21875 C-8.97049735 -0.31667183 -4.76058977 -0.02412461 0 0 Z " fill="#F9F9FA" transform="translate(426.375,472.875)"/>
<path d="M0 0 C1.32 0 2.64 0 4 0 C4 11.88 4 23.76 4 36 C2.35 35.67 0.7 35.34 -1 35 C-1.99 35.495 -1.99 35.495 -3 36 C-13.50309235 37.08599182 -13.50309235 37.08599182 -18.1875 33.6875 C-21.65779193 28.54189473 -22.01448663 23.03533573 -21 17 C-19.2100096 13.96279048 -17.22312474 12.39516884 -14 11 C-8.97337502 10.17235329 -5.28831463 10.14112358 -1 13 C-0.67 8.71 -0.34 4.42 0 0 Z " fill="#293E6A" transform="translate(486,555)"/>
<path d="M0 0 C4.4125235 2.1661479 7.09058512 4.43862 9 9 C9.55181648 13.33570093 9.32932767 15.40948142 7.1875 19.25 C6.465625 20.1575 5.74375 21.065 5 22 C4.59136719 22.54269531 4.18273437 23.08539062 3.76171875 23.64453125 C1.11785505 25.6787235 -1.08539844 25.43373615 -4.375 25.4375 C-5.49648438 25.45683594 -6.61796875 25.47617187 -7.7734375 25.49609375 C-11.62235165 24.90431155 -13.23984327 23.69053116 -16 21 C-18.32554055 17.01335905 -19.00665344 12.51287854 -18 8 C-13.31423542 0.51140078 -8.598058 -0.95093729 0 0 Z " fill="#394B78" transform="translate(419,566)"/>
<path d="M0 0 C4.58564129 3.19862633 4.58564129 3.19862633 5.9609375 5.94921875 C5.9609375 8.25921875 5.9609375 10.56921875 5.9609375 12.94921875 C-0.6390625 12.94921875 -7.2390625 12.94921875 -14.0390625 12.94921875 C-12.0590625 15.91921875 -12.0590625 15.91921875 -10.0390625 18.94921875 C-6.54392951 19.67356443 -6.54392951 19.67356443 -2.7890625 19.32421875 C-1.52578125 19.27007813 -0.2625 19.2159375 1.0390625 19.16015625 C2.00328125 19.09054687 2.9675 19.0209375 3.9609375 18.94921875 C3.5859375 20.88671875 3.5859375 20.88671875 2.9609375 22.94921875 C0.16361945 24.34787778 -2.23190809 24.19459142 -5.3515625 24.26171875 C-6.48207031 24.29910156 -7.61257813 24.33648438 -8.77734375 24.375 C-12.68887064 23.8643935 -14.25327612 22.67969168 -17.0390625 19.94921875 C-19.37581108 15.94336403 -19.91905374 11.49139573 -19.0390625 6.94921875 C-17.3408913 3.8708606 -15.02824822 1.6996355 -12.2265625 -0.42578125 C-7.91656533 -1.65720901 -4.0201753 -2.07169953 0 0 Z " fill="#3B507C" transform="translate(584.0390625,567.05078125)"/>
<path d="M0 0 C1.06734375 -0.05994141 1.06734375 -0.05994141 2.15625 -0.12109375 C5.81828885 0.75169217 8.38276698 2.36940097 10.5 5.4375 C11.22471357 8.90656605 11.06928025 12.225557 10.875 15.75 C10.84792969 16.68134766 10.82085938 17.61269531 10.79296875 18.57226562 C10.7224825 20.86306872 10.62404246 23.14907563 10.5 25.4375 C9.18 25.4375 7.86 25.4375 6.5 25.4375 C6.5 24.7775 6.5 24.1175 6.5 23.4375 C5.84 23.4375 5.18 23.4375 4.5 23.4375 C4.5 24.0975 4.5 24.7575 4.5 25.4375 C2.39646505 25.5185206 0.29204048 25.57669907 -1.8125 25.625 C-2.98425781 25.65980469 -4.15601563 25.69460938 -5.36328125 25.73046875 C-8.5 25.4375 -8.5 25.4375 -10.390625 24.17578125 C-11.70902231 22.10998265 -11.93287736 20.87825206 -11.9375 18.4375 C-11.95683594 17.756875 -11.97617187 17.07625 -11.99609375 16.375 C-11.5 14.4375 -11.5 14.4375 -9.89453125 12.69921875 C-6.70756337 11.01995182 -4.33120261 11.14256392 -0.75 11.25 C1.00570312 11.29060547 1.00570312 11.29060547 2.796875 11.33203125 C3.68890625 11.36683594 4.5809375 11.40164063 5.5 11.4375 C4.41215032 8.18766865 4.41215032 8.18766865 2.5 5.4375 C-3.58468557 5.20373077 -3.58468557 5.20373077 -9.5 6.4375 C-9.83 5.1175 -10.16 3.7975 -10.5 2.4375 C-7.00816364 1.00495175 -3.75118938 0.20945727 0 0 Z " fill="#47567D" transform="translate(683.5,565.5625)"/>
<path d="M0 0 C3 1.375 3 1.375 5 4 C5.99177512 7.34789695 6.49688546 10.52393588 7 14 C0.4 14 -6.2 14 -13 14 C-11.23148964 17.18074165 -11.23148964 17.18074165 -9 20 C-7.37747508 20.09886353 -5.75052727 20.12971167 -4.125 20.125 C-3.24070312 20.12757813 -2.35640625 20.13015625 -1.4453125 20.1328125 C1.13906291 20.10048585 1.13906291 20.10048585 4 19 C4.33 20.32 4.66 21.64 5 23 C0.323868 26.11742133 -4.5290089 25.71549289 -10 25 C-13.31673103 23.41428669 -15.20757815 21.08057525 -17.375 18.125 C-18.52139788 14.2272472 -18.92519088 10.76497953 -16.984375 7.0625 C-12.32396571 0.32455886 -8.05040983 -0.97736605 0 0 Z " fill="#344771" transform="translate(363,566)"/>
<path d="M0 0 C2.80824066 1.78706224 4.26736906 2.78473811 5.75 5.75 C5.75 8.06 5.75 10.37 5.75 12.75 C-0.85 12.75 -7.45 12.75 -14.25 12.75 C-12.27 15.72 -12.27 15.72 -10.25 18.75 C-7.35405649 19.21211865 -5.34502976 19.334747 -2.5 19.125 C-1.45392578 19.08439453 -1.45392578 19.08439453 -0.38671875 19.04296875 C1.32685705 18.97254783 3.03883302 18.86492913 4.75 18.75 C4.4375 20.6875 4.4375 20.6875 3.75 22.75 C-1.47358692 24.49119564 -8.26033532 25.20004336 -13.3359375 22.73828125 C-15.9380124 20.62488871 -17.1882043 18.93538711 -18.25 15.75 C-18.75062692 10.90787073 -18.99256635 7.02297089 -16.5 2.75 C-11.34848841 -1.82912141 -6.58914735 -2.53428744 0 0 Z " fill="#293C67" transform="translate(660.25,567.25)"/>
<path d="M0 0 C1.32 0 2.64 0 4 0 C4 4.95 4 9.9 4 15 C4.66 15 5.32 15 6 15 C6.33 14.01 6.66 13.02 7 12 C10.20851238 10.39574381 13.51935844 10.50922308 17 11 C19.65683189 12.49748707 21.84652751 13.84652751 24 16 C24.08669432 17.4887186 24.10703494 18.981445 24.09765625 20.47265625 C24.09443359 21.37177734 24.09121094 22.27089844 24.08789062 23.19726562 C24.07951172 24.14279297 24.07113281 25.08832031 24.0625 26.0625 C24.05798828 27.01189453 24.05347656 27.96128906 24.04882812 28.93945312 C24.0370011 31.29303065 24.02052025 33.64648477 24 36 C22.35 36 20.7 36 19 36 C18.92652344 34.08574219 18.92652344 34.08574219 18.8515625 32.1328125 C18.77653809 30.46351928 18.70099012 28.79424954 18.625 27.125 C18.5940625 26.28324219 18.563125 25.44148437 18.53125 24.57421875 C18.49257813 23.76855469 18.45390625 22.96289062 18.4140625 22.1328125 C18.36693115 21.01737061 18.36693115 21.01737061 18.31884766 19.87939453 C18.14580449 17.75989026 18.14580449 17.75989026 16 16 C11.24128295 15.42175873 11.24128295 15.42175873 7.1875 17.5 C6.795625 17.995 6.40375 18.49 6 19 C5.34 19 4.68 19 4 19 C4 24.61 4 30.22 4 36 C2.68 36 1.36 36 0 36 C0 24.12 0 12.24 0 0 Z " fill="#2D406C" transform="translate(535,555)"/>
<path d="M0 0 C1.65 0 3.3 0 5 0 C5.33 0.66 5.66 1.32 6 2 C6.99 1.34 7.98 0.68 9 0 C11.05078125 -0.37109375 11.05078125 -0.37109375 13.3125 -0.4375 C14.42044922 -0.49744141 14.42044922 -0.49744141 15.55078125 -0.55859375 C19.26933853 0.28949826 21.86039783 1.88241861 24 5 C24.72365818 8.46933517 24.56928505 11.78796984 24.375 15.3125 C24.34792969 16.24384766 24.32085937 17.17519531 24.29296875 18.13476562 C24.2224825 20.42556872 24.12404246 22.71157563 24 25 C22.35 25 20.7 25 19 25 C18.95101563 23.72382812 18.90203125 22.44765625 18.8515625 21.1328125 C18.77653809 19.46351928 18.70099012 17.79424954 18.625 16.125 C18.5940625 15.28324219 18.563125 14.44148437 18.53125 13.57421875 C18.49257813 12.76855469 18.45390625 11.96289062 18.4140625 11.1328125 C18.36693115 10.01737061 18.36693115 10.01737061 18.31884766 8.87939453 C18.14580449 6.75989026 18.14580449 6.75989026 16 5 C11.37459063 4.44223905 11.37459063 4.44223905 7.30932617 6.26879883 C5.74754794 8.33379406 5.58472852 9.44622126 5.48828125 12.01171875 C5.45283203 12.76904297 5.41738281 13.52636719 5.38085938 14.30664062 C5.35830078 15.09232422 5.33574219 15.87800781 5.3125 16.6875 C5.27833984 17.48478516 5.24417969 18.28207031 5.20898438 19.10351562 C5.12661896 21.06851904 5.06162933 23.03423696 5 25 C3.35 25 1.7 25 0 25 C0 16.75 0 8.5 0 0 Z " fill="#354A75" transform="translate(434,566)"/>
<path d="M0 0 C1.65 0 3.3 0 5 0 C5.79423861 1.56119422 6.58527123 3.12401964 7.375 4.6875 C8.03628906 5.99267578 8.03628906 5.99267578 8.7109375 7.32421875 C12 14.15151515 12 14.15151515 12 18 C12.66 18 13.32 18 14 18 C14.0928125 16.6078125 14.0928125 16.6078125 14.1875 15.1875 C14.93014807 9.71890969 17.59626764 4.9050332 20 0 C21.65 0 23.3 0 25 0 C21.44317701 11.04487139 17.3974372 21.71646175 12 32 C11.33059314 33.33195972 10.66303114 34.66485509 10 36 C8.68 36 7.36 36 6 36 C7.33333333 32 8.66666667 28 10 24 C9.45385968 21.92310287 9.45385968 21.92310287 8.4375 19.6875 C8.07011719 18.81738281 7.70273437 17.94726562 7.32421875 17.05078125 C6.88722656 16.04402344 6.45023437 15.03726563 6 14 C5.46403206 12.7438356 4.92891739 11.48730688 4.39453125 10.23046875 C2.93998721 6.81584581 1.47269664 3.40683823 0 0 Z " fill="#304470" transform="translate(373,567)"/>
<path d="M0 0 C3.76706021 1.18592636 5.27969919 1.71001871 7.375 5.0625 C7.97441428 8.18963297 8.03686617 10.94227378 7.375 14.0625 C4.58664742 17.0307463 1.72852839 17.29755418 -2.1875 17.5625 C-5.62302432 17.43058504 -6.43627633 17.21078288 -9.25 15 C-11.08899164 11.07124513 -10.94958883 9.18344302 -9.625 5.0625 C-6.43934958 1.42175667 -4.88877689 0.08428926 0 0 Z " fill="#6A4FBA" transform="translate(813.625,399.9375)"/>
<path d="M0 0 C3.29550775 0.6179077 5.31712904 1.56951015 8 3.5625 C9.6026571 6.76781421 9.48207377 10.08468208 9 13.5625 C6.86398066 16.89469018 5.3672811 17.45565459 1.5625 18.5625 C-2 18.5625 -2 18.5625 -4.875 16.75 C-7.31785235 14.23529905 -7.90410266 13.26574715 -8.375 9.8125 C-7.77123991 4.57991257 -5.3149285 0.99654909 0 0 Z " fill="#F3F4F7" transform="translate(621,569.4375)"/>
<path d="M0 0 C4.63235294 2.26470588 4.63235294 2.26470588 6 5 C6.48602588 9.29322859 6.46241608 11.32082639 4 14.9375 C-0.15080314 17.79117716 -2.0301078 17.7099846 -7 17 C-9.5 15.5625 -9.5 15.5625 -11 13 C-11.60303852 9.8699429 -11.65919094 7.12399182 -11 4 C-7.7470039 0.07726941 -4.98888545 -0.7275458 0 0 Z " fill="#F6F6F9" transform="translate(417,570)"/>
<path d="M0 0 C4.29085983 0.87568568 6.18527073 2.33673797 9.0625 5.625 C9.9322759 8.74015481 9.64525601 10.2873974 9.0625 13.625 C6.57064571 16.48330345 4.63826533 17.43307822 1.0625 18.625 C-1.9375 18.625 -1.9375 18.625 -4.75 16.8125 C-7.50437926 14.05812074 -7.87092474 13.21308147 -8.3125 9.3125 C-7.9375 5.625 -7.9375 5.625 -5.8125 2.6875 C-2.9375 0.625 -2.9375 0.625 0 0 Z " fill="#F5F6F8" transform="translate(476.9375,569.375)"/>
<path d="M0 0 C1.32 0 2.64 0 4 0 C4 2.31 4 4.62 4 7 C6.64 7 9.28 7 12 7 C12 8.32 12 9.64 12 11 C9.69 11 7.38 11 5 11 C5.33 15.95 5.66 20.9 6 26 C8.31 26.33 10.62 26.66 13 27 C13 28.32 13 29.64 13 31 C11.39667209 31.08121924 9.79215974 31.13929134 8.1875 31.1875 C6.84751953 31.23970703 6.84751953 31.23970703 5.48046875 31.29296875 C3 31 3 31 1.36328125 29.74609375 C-0.33100622 27.57604647 -0.3509446 26.49439606 -0.29296875 23.76953125 C-0.28330078 22.96708984 -0.27363281 22.16464844 -0.26367188 21.33789062 C-0.23853516 20.50451172 -0.21339844 19.67113281 -0.1875 18.8125 C-0.17396484 17.96751953 -0.16042969 17.12253906 -0.14648438 16.25195312 C-0.11115799 14.16769616 -0.05735139 12.08376723 0 10 C-1.32 10 -2.64 10 -4 10 C-4 9.01 -4 8.02 -4 7 C-2.68 7 -1.36 7 0 7 C0 4.69 0 2.38 0 0 Z " fill="#1D3262" transform="translate(515,560)"/>
<path d="M0 0 C2.06132142 -0.10864945 4.12431321 -0.18588321 6.1875 -0.25 C7.33605469 -0.29640625 8.48460937 -0.3428125 9.66796875 -0.390625 C13.60353399 0.07075428 15.17745787 1.29971488 18 4 C17.65760741 6.53370516 17.32708528 8.50469943 15.90625 10.65625 C12.96093469 12.73245588 10.35349475 12.28495857 6.8125 12.1875 C5.54019531 12.16042969 4.26789063 12.13335938 2.95703125 12.10546875 C1.98121094 12.07066406 1.00539063 12.03585937 0 12 C0 8.04 0 4.08 0 0 Z " fill="#F1F2F6" transform="translate(318,575)"/>
<path d="M0 0 C2.08268593 -0.08126087 4.16628658 -0.13930839 6.25 -0.1875 C7.99023438 -0.23970703 7.99023438 -0.23970703 9.765625 -0.29296875 C13.25084947 0.02272187 14.59839865 0.49930345 17 3 C17.5 6 17.5 6 17 9 C14.59839865 11.50069655 13.25084947 11.97727813 9.765625 12.29296875 C8.60546875 12.25816406 7.4453125 12.22335937 6.25 12.1875 C5.07953125 12.16042969 3.9090625 12.13335938 2.703125 12.10546875 C1.81109375 12.07066406 0.9190625 12.03585937 0 12 C0 8.04 0 4.08 0 0 Z " fill="#EBECF1" transform="translate(317,559)"/>
<path d="M0 0 C0.86625 -0.01675781 1.7325 -0.03351562 2.625 -0.05078125 C5 0.3125 5 0.3125 6.83203125 1.67578125 C8 3.3125 8 3.3125 7.6875 5.8125 C7.460625 6.6375 7.23375 7.4625 7 8.3125 C7 9.3025 7 10.2925 7 11.3125 C5.95199219 11.37308594 4.90398437 11.43367187 3.82421875 11.49609375 C2.44529952 11.58051738 1.06639395 11.66516447 -0.3125 11.75 C-1.34793945 11.80897461 -1.34793945 11.80897461 -2.40429688 11.86914062 C-5.47161535 12.06177415 -8.06968152 12.33572717 -11 13.3125 C-11.66 14.3025 -12.32 15.2925 -13 16.3125 C-13.56463521 10.77907494 -12.63740795 8.05888821 -9.38671875 3.79296875 C-6.41444206 0.61974941 -4.18050058 0.01866295 0 0 Z " fill="#455881" transform="translate(358,565.6875)"/>
<path d="M0 0 C1.32 0 2.64 0 4 0 C4 4.95 4 9.9 4 15 C4.66 15.33 5.32 15.66 6 16 C5.67 16.99 5.34 17.98 5 19 C4.85596652 20.33363703 4.75409577 21.67218046 4.68359375 23.01171875 C4.64169922 23.76904297 4.59980469 24.52636719 4.55664062 25.30664062 C4.51732422 26.09232422 4.47800781 26.87800781 4.4375 27.6875 C4.39431641 28.48478516 4.35113281 29.28207031 4.30664062 30.10351562 C4.20072632 32.06881447 4.09987449 34.03438496 4 36 C2.68 36 1.36 36 0 36 C0 24.12 0 12.24 0 0 Z " fill="#29406B" transform="translate(535,555)"/>
<path d="M0 0 C1.32 0 2.64 0 4 0 C4 11.88 4 23.76 4 36 C2.68 36 1.36 36 0 36 C0 24.12 0 12.24 0 0 Z " fill="#233766" transform="translate(703,555)"/>
<path d="M0 0 C0.33 0 0.66 0 1 0 C1.03738281 0.68707031 1.07476562 1.37414062 1.11328125 2.08203125 C1.17902344 2.98308594 1.24476563 3.88414062 1.3125 4.8125 C1.39951172 6.15248047 1.39951172 6.15248047 1.48828125 7.51953125 C2.07560207 10.36646804 2.64279119 11.33257349 5 13 C10.75826278 13.5663865 13.9045341 12.9116948 19 10 C19.66 10 20.32 10 21 10 C20.45281319 13.83030765 18.99447853 15.59647163 16 18 C12.94140625 18.53125 12.94140625 18.53125 9.5625 18.5 C8.45003906 18.5103125 7.33757812 18.520625 6.19140625 18.53125 C2.39301921 17.89896036 0.73332211 16.65891225 -2 14 C-3.26237731 11.47524538 -3.09856404 9.68799534 -3.0625 6.875 C-3.05347656 5.96492187 -3.04445313 5.05484375 -3.03515625 4.1171875 C-3.02355469 3.41851563 -3.01195312 2.71984375 -3 2 C-2.34 2 -1.68 2 -1 2 C-0.67 1.34 -0.34 0.68 0 0 Z " fill="#314572" transform="translate(405,573)"/>
<path d="M0 0 C1.65 0 3.3 0 5 0 C5 11.88 5 23.76 5 36 C3.68 36 2.36 36 1 36 C0.67 35.34 0.34 34.68 0 34 C-0.66 34.66 -1.32 35.32 -2 36 C-4.68839385 36.26991906 -7.29141936 36.08737357 -10 36 C-10 35.34 -10 34.68 -10 34 C-9.44570313 33.81566406 -8.89140625 33.63132812 -8.3203125 33.44140625 C-3.71853611 31.65294367 -3.71853611 31.65294367 -1.0234375 27.73046875 C-0.54871865 25.48086824 -0.19572068 23.28993199 0 21 C0.66 22.32 1.32 23.64 2 25 C3.68300669 23.31699331 3.22809077 21.17991273 3.31640625 18.87109375 C3.35830078 17.83662109 3.40019531 16.80214844 3.44335938 15.73632812 C3.48267578 14.64771484 3.52199219 13.55910156 3.5625 12.4375 C3.60568359 11.34501953 3.64886719 10.25253906 3.69335938 9.12695312 C3.79982068 6.41810436 3.90183516 3.70916008 4 1 C3.01 1 2.02 1 1 1 C1 5.29 1 9.58 1 14 C0.34 13.67 -0.32 13.34 -1 13 C-0.67 8.71 -0.34 4.42 0 0 Z " fill="#44557B" transform="translate(630,555)"/>
<path d="M0 0 C0 0.33 0 0.66 0 1 C-2.31 1 -4.62 1 -7 1 C-7 1.66 -7 2.32 -7 3 C-7.99 3.495 -7.99 3.495 -9 4 C-9.69937532 5.31647119 -10.36729133 6.65022151 -11 8 C-11.33 8.33 -11.66 8.66 -12 9 C-12.50125283 12.33142278 -12.50125283 12.33142278 -12 16 C-10.37347684 17.70586575 -8.70993434 19.3777546 -7 21 C-7.1875 23.3125 -7.1875 23.3125 -8 25 C-11.09322404 24.6655974 -12.58887768 24.4404882 -14.75 22.125 C-17.69989447 17.1101794 -17.94982884 11.65067666 -17 6 C-13.09318632 -0.62898064 -7.01561829 -0.76226034 0 0 Z " fill="#364772" transform="translate(482,566)"/>
<path d="M0 0 C0.33 0 0.66 0 1 0 C1 5.94 1 11.88 1 18 C0.01 18 -0.98 18 -2 18 C-2 17.34 -2 16.68 -2 16 C-2.66 16 -3.32 16 -4 16 C-4 16.66 -4 17.32 -4 18 C-6.12472576 18.05386629 -8.24983652 18.09273071 -10.375 18.125 C-11.55835938 18.14820313 -12.74171875 18.17140625 -13.9609375 18.1953125 C-17 18 -17 18 -19 16 C-18.625 12.875 -18.625 12.875 -18 10 C-16.948125 10.99 -16.948125 10.99 -15.875 12 C-12.49736169 14.34966143 -11.02695637 14.68543938 -7 14 C-4.15219381 11.76793569 -3.15002334 10.45007001 -2 7 C-2.99 6.67 -3.98 6.34 -5 6 C-4.01 5.67 -3.02 5.34 -2 5 C-1.33820153 3.01954441 -1.33820153 3.01954441 -1 1 C-0.67 0.67 -0.34 0.34 0 0 Z " fill="#243561" transform="translate(692,573)"/>
<path d="M0 0 C0.33 0 0.66 0 1 0 C1.33 2.64 1.66 5.28 2 8 C2.66 5.36 3.32 2.72 4 0 C4.33 0 4.66 0 5 0 C5.33 4.95 5.66 9.9 6 15 C8.31 15.33 10.62 15.66 13 16 C13 17.32 13 18.64 13 20 C11.39667209 20.08121924 9.79215974 20.13929134 8.1875 20.1875 C6.84751953 20.23970703 6.84751953 20.23970703 5.48046875 20.29296875 C3 20 3 20 1.36328125 18.73242188 C-0.29572518 16.62420024 -0.35275965 15.63901098 -0.29296875 12.98828125 C-0.28330078 12.23095703 -0.27363281 11.47363281 -0.26367188 10.69335938 C-0.23853516 9.90767578 -0.21339844 9.12199219 -0.1875 8.3125 C-0.17396484 7.51521484 -0.16042969 6.71792969 -0.14648438 5.89648438 C-0.11117089 3.93070033 -0.05736447 1.96526418 0 0 Z " fill="#364873" transform="translate(515,571)"/>
<path d="M0 0 C0.99 0 1.98 0 3 0 C3 0.99 3 1.98 3 3 C3.66 3.33 4.32 3.66 5 4 C4.67 4.66 4.34 5.32 4 6 C3.91691362 7.37548156 3.89263984 8.75485796 3.90234375 10.1328125 C3.90556641 10.93847656 3.90878906 11.74414062 3.91210938 12.57421875 C3.92048828 13.41597656 3.92886719 14.25773438 3.9375 15.125 C3.94426758 16.39923828 3.94426758 16.39923828 3.95117188 17.69921875 C3.96297126 19.79950909 3.98090694 21.8997633 4 24 C2.35 24 0.7 24 -1 24 C-1.14525497 15.94641862 -0.71413279 8.02124152 0 0 Z " fill="#203462" transform="translate(435,567)"/>
<path d="M0 0 C0.99 0 1.98 0 3 0 C3.086985 3.77068832 3.14038579 7.54111932 3.1875 11.3125 C3.21263672 12.38435547 3.23777344 13.45621094 3.26367188 14.56054688 C3.27817383 16.10258789 3.27817383 16.10258789 3.29296875 17.67578125 C3.31653442 19.0975769 3.31653442 19.0975769 3.34057617 20.5480957 C2.94475643 23.39771408 2.22175281 24.24976105 0 26 C-0.268125 24.906875 -0.53625 23.81375 -0.8125 22.6875 C-2.09308312 18.69133728 -2.09308312 18.69133728 -5 16 C-5.66 15.67 -6.32 15.34 -7 15 C-7 14.34 -7 13.68 -7 13 C-2.25 11.875 -2.25 11.875 0 13 C0 8.71 0 4.42 0 0 Z " fill="#233865" transform="translate(631,556)"/>
<path d="M0 0 C5.94 0 11.88 0 18 0 C17.67 0.99 17.34 1.98 17 3 C12.38 3.33 7.76 3.66 3 4 C2.34 12.91 1.68 21.82 1 31 C0.67 31 0.34 31 0 31 C0 20.77 0 10.54 0 0 Z " fill="#152D5B" transform="translate(314,556)"/>
<path d="M0 0 C3.71205138 0.06575292 4.33364932 0.16746766 7.1875 2.8125 C8.625 5.4375 8.625 5.4375 8.625 7.4375 C3.345 7.4375 -1.935 7.4375 -7.375 7.4375 C-6.22100784 1.66753919 -5.69580011 0.16084485 0 0 Z " fill="#EAECF1" transform="translate(577.375,569.5625)"/>
<path d="M0 0 C3.15227367 0.07450829 3.96888675 0.26181789 6.625 2.1875 C8.125 4.375 8.125 4.375 8.125 7.375 C2.845 7.375 -2.435 7.375 -7.875 7.375 C-5.12332215 0.49580537 -5.12332215 0.49580537 0 0 Z " fill="#E9EBF0" transform="translate(653.875,569.625)"/>
<path d="M0 0 C3.15227367 0.07450829 3.96888675 0.26181789 6.625 2.1875 C8.125 4.375 8.125 4.375 8.125 7.375 C3.175 7.375 -1.775 7.375 -6.875 7.375 C-5.50657895 0.53289474 -5.50657895 0.53289474 0 0 Z " fill="#EAECF1" transform="translate(356.875,569.625)"/>
<path d="M0 0 C0.55171875 0.30679688 1.1034375 0.61359375 1.671875 0.9296875 C4.92483406 2.42517539 7.69071447 2.19091269 11.25 2.125 C13.14492188 2.09792969 13.14492188 2.09792969 15.078125 2.0703125 C16.04234375 2.04710937 17.0065625 2.02390625 18 2 C17.625 3.9375 17.625 3.9375 17 6 C14.18433745 7.40783127 11.7636293 7.2076814 8.625 7.25 C6.91183594 7.28867187 6.91183594 7.28867187 5.1640625 7.328125 C1.7496304 6.97403575 0.34724983 6.47444071 -2 4 C-2 3.01 -2 2.02 -2 1 C-1.34 0.67 -0.68 0.34 0 0 Z " fill="#2F416C" transform="translate(570,584)"/>
<path d="M0 0 C5.96258424 -0.5230337 8.91850171 0.02306967 13.65234375 3.7109375 C15 5 15 5 16 7 C16.04022391 9.3329866 16.04320247 11.66706666 16 14 C14.35 14 12.7 14 11 14 C11 13.34 11 12.68 11 12 C9.35 12 7.7 12 6 12 C6 11.67 6 11.34 6 11 C7.98 11 9.96 11 12 11 C10.47648077 7.92043703 10.47648077 7.92043703 8 5 C4.3634269 4.02649222 4.3634269 4.02649222 1 4 C1.99 3.34 2.98 2.68 4 2 C2.68 1.34 1.36 0.68 0 0 Z " fill="#3D4D78" transform="translate(574,566)"/>
<path d="M0 0 C3.22868746 -0.14584064 6.45652365 -0.23424106 9.6875 -0.3125 C10.59951172 -0.35439453 11.51152344 -0.39628906 12.45117188 -0.43945312 C17.0661127 -0.52336114 19.28453708 -0.51821751 23.1171875 2.2578125 C25.90342245 6.31577295 25.55242921 8.18597401 25 13 C24.34 13.66 23.68 14.32 23 15 C20.875 14.625 20.875 14.625 19 14 C19.33 13.67 19.66 13.34 20 13 C20.44979055 8.73919411 20.44979055 8.73919411 18.5 5.125 C18.005 4.75375 17.51 4.3825 17 4 C17.33 3.34 17.66 2.68 18 2 C12.06 1.67 6.12 1.34 0 1 C0 0.67 0 0.34 0 0 Z " fill="#3C4F7A" transform="translate(313,555)"/>
<path d="M0 0 C2.75337251 1.75214614 4.23039316 2.87963152 5.75 5.75 C5.9375 8.5 5.9375 8.5 5.75 10.75 C5.42 9.43 5.09 8.11 4.75 6.75 C3.574375 6.564375 3.574375 6.564375 2.375 6.375 C-0.25 5.75 -0.25 5.75 -2.25 3.75 C-4.95269766 3.66420007 -7.55753896 3.65403109 -10.25 3.75 C-11.24 3.75 -12.23 3.75 -13.25 3.75 C-13.58 2.76 -13.91 1.77 -14.25 0.75 C-9.5846334 -2.23583463 -5.04845675 -1.94171414 0 0 Z " fill="#3C4E7A" transform="translate(660.25,567.25)"/>
<path d="M0 0 C3.96 0 7.92 0 12 0 C11.67 1.65 11.34 3.3 11 5 C7.53001271 7.31332486 6.07490752 7.33957563 2 7 C1.01 6.34 0.02 5.68 -1 5 C-0.67 3.35 -0.34 1.7 0 0 Z " fill="#EAEDF3" transform="translate(677,581)"/>
<path d="M0 0 C1.65 0 3.3 0 5 0 C5.33 0.66 5.66 1.32 6 2 C6.99 1.34 7.98 0.68 9 0 C11.26171875 -0.1953125 11.26171875 -0.1953125 13.6875 -0.125 C14.89986328 -0.09792969 14.89986328 -0.09792969 16.13671875 -0.0703125 C17.05904297 -0.03550781 17.05904297 -0.03550781 18 0 C17.67 0.99 17.34 1.98 17 3 C15.0390625 3.87890625 15.0390625 3.87890625 12.625 4.5625 C9.54588761 5.45012686 7.72662828 6.18224782 5 8 C4.31292445 5.50935112 4 3.62113708 4 1 C3.01 1 2.02 1 1 1 C1 5.29 1 9.58 1 14 C0.67 14 0.34 14 0 14 C0 9.38 0 4.76 0 0 Z " fill="#42537C" transform="translate(434,566)"/>
<path d="M0 0 C2.5 1.5 2.5 1.5 4 3 C2.68 3.99 1.36 4.98 0 6 C-0.33 5.67 -0.66 5.34 -1 5 C-5.96824879 4.6027269 -5.96824879 4.6027269 -10.4375 6.5 C-10.953125 6.995 -11.46875 7.49 -12 8 C-11.6875 5.125 -11.6875 5.125 -11 2 C-7.3187559 -0.45416273 -4.27738037 -0.59384154 0 0 Z " fill="#3E507B" transform="translate(552,566)"/>
<path d="M0 0 C-0.3125 1.9375 -0.3125 1.9375 -1 4 C-4.28519475 5.09506492 -6.73663415 5.09960608 -10.1875 5.0625 C-11.81751953 5.04896484 -11.81751953 5.04896484 -13.48046875 5.03515625 C-14.31191406 5.02355469 -15.14335938 5.01195312 -16 5 C-15.26953125 3.046875 -15.26953125 3.046875 -14 1 C-12.01171875 0.390625 -12.01171875 0.390625 -9.6875 0.25 C-8.88828125 0.19457031 -8.0890625 0.13914062 -7.265625 0.08203125 C-4.83979389 -0.00580057 -2.42679689 -0.07828377 0 0 Z " fill="#36476D" transform="translate(665,586)"/>
<path d="M0 0 C3.875 1.75 3.875 1.75 5 4 C5.1875 7.5 5.1875 7.5 5 11 C4.34 11.66 3.68 12.32 3 13 C2.67 12.34 2.34 11.68 2 11 C0.68 11.33 -0.64 11.66 -2 12 C-1.34 11.01 -0.68 10.02 0 9 C-0.32126128 6.36565746 -0.81355048 4.37289903 -2 2 C-1.34 2 -0.68 2 0 2 C0 1.34 0 0.68 0 0 Z " fill="#3C4B77" transform="translate(335,574)"/>
<path d="M0 0 C0 0.99 0 1.98 0 3 C-1.57477503 3.58603269 -3.16036205 4.14307197 -4.75 4.6875 C-6.07257812 5.15736328 -6.07257812 5.15736328 -7.421875 5.63671875 C-10 6 -10 6 -12.328125 4.58203125 C-12.87984375 4.05996094 -13.4315625 3.53789063 -14 3 C-9.43672206 -0.53286034 -5.50366792 -0.32374517 0 0 Z " fill="#41527C" transform="translate(626,566)"/>
<path d="M0 0 C0.91007812 0.00902344 1.82015625 0.01804687 2.7578125 0.02734375 C3.45648438 0.03894531 4.15515625 0.05054688 4.875 0.0625 C4.875 0.3925 4.875 0.7225 4.875 1.0625 C2.565 1.0625 0.255 1.0625 -2.125 1.0625 C-2.125 1.7225 -2.125 2.3825 -2.125 3.0625 C-3.115 3.5575 -3.115 3.5575 -4.125 4.0625 C-4.455 4.7225 -4.785 5.3825 -5.125 6.0625 C-6.125 8.0625 -6.125 8.0625 -8.125 9.0625 C-9.115 8.0725 -10.105 7.0825 -11.125 6.0625 C-7.4216066 1.24808858 -6.05973821 -0.07768895 0 0 Z " fill="#3E507A" transform="translate(477.125,565.9375)"/>
<path d="M0 0 C0.66 0.66 1.32 1.32 2 2 C4.62881631 2.2059616 4.62881631 2.2059616 7.625 2.0625 C12.55104186 1.97347515 17.13605585 2.2517009 22 3 C22 3.33 22 3.66 22 4 C16.06 4 10.12 4 4 4 C3.67 5.32 3.34 6.64 3 8 C2.34 7.34 1.68 6.68 1 6 C0.67 6 0.34 6 0 6 C0 4.02 0 2.04 0 0 Z " fill="#243663" transform="translate(346,576)"/>
<path d="M0 0 C1.65 0 3.3 0 5 0 C5.125 3.375 5.125 3.375 5 7 C3 9 3 9 -2 10 C-1.34 6.7 -0.68 3.4 0 0 Z " fill="#3E527D" transform="translate(423,575)"/>
<path d="M0 0 C1.09570312 0.00902344 2.19140625 0.01804687 3.3203125 0.02734375 C4.16335938 0.03894531 5.00640625 0.05054688 5.875 0.0625 C5.875 1.0525 5.875 2.0425 5.875 3.0625 C4.97007812 3.15337891 4.97007812 3.15337891 4.046875 3.24609375 C2.84804688 3.37177734 2.84804688 3.37177734 1.625 3.5 C0.83609375 3.58121094 0.0471875 3.66242187 -0.765625 3.74609375 C-2.94864639 4.03884993 -5.0023182 4.48314419 -7.125 5.0625 C-7.455 3.7425 -7.785 2.4225 -8.125 1.0625 C-5.36047967 -0.31976016 -3.0788637 -0.03275387 0 0 Z " fill="#314472" transform="translate(681.125,566.9375)"/>
<path d="M0 0 C1.7290774 -0.02725341 3.45828176 -0.04650987 5.1875 -0.0625 C6.15042969 -0.07410156 7.11335937 -0.08570313 8.10546875 -0.09765625 C10.85576513 -0.00486622 13.32479591 0.37888315 16 1 C16 1.66 16 2.32 16 3 C10.72 3 5.44 3 0 3 C0 2.01 0 1.02 0 0 Z " fill="#283867" transform="translate(569,577)"/>
<path d="M0 0 C0.66 0 1.32 0 2 0 C2 0.66 2 1.32 2 2 C2.66 2 3.32 2 4 2 C4 5.3 4 8.6 4 12 C2.68 11.67 1.36 11.34 0 11 C0 7.37 0 3.74 0 0 Z " fill="#273A69" transform="translate(465,572)"/>
<path d="M0 0 C0.66 0.66 1.32 1.32 2 2 C0.9275 2.226875 -0.145 2.45375 -1.25 2.6875 C-5.37218701 4.13026545 -6.64414523 5.41910075 -9 9 C-9.66 8.34 -10.32 7.68 -11 7 C-10.82537038 4.29324094 -10.19904177 3.20641369 -8.3125 1.25 C-5.34168279 -0.35584714 -3.33078297 -0.36204163 0 0 Z " fill="#314773" transform="translate(578,567)"/>
<path d="M0 0 C2.31 1.98 4.62 3.96 7 6 C6.67 7.32 6.34 8.64 6 10 C2.66282451 8.6190998 0.77698964 7.1798762 -1 4 C-0.67 2.68 -0.34 1.36 0 0 Z " fill="#304068" transform="translate(347,580)"/>
<path d="M0 0 C0.99 0.33 1.98 0.66 3 1 C3.33 2.98 3.66 4.96 4 7 C2.54257537 7.08096803 1.08387193 7.13917774 -0.375 7.1875 C-1.18710937 7.22230469 -1.99921875 7.25710938 -2.8359375 7.29296875 C-3.55007813 7.19628906 -4.26421875 7.09960938 -5 7 C-5.66 6.01 -6.32 5.02 -7 4 C-4.69 4 -2.38 4 0 4 C0 2.68 0 1.36 0 0 Z " fill="#303F6A" transform="translate(662,573)"/>
<path d="M0 0 C1.60332791 -0.08121924 3.20784026 -0.13929134 4.8125 -0.1875 C6.15248047 -0.23970703 6.15248047 -0.23970703 7.51953125 -0.29296875 C10.41647515 0.04918998 11.22555028 0.75393573 13 3 C12 4.625 12 4.625 10 6 C7.1841095 5.65009645 4.7283142 4.84980278 2 4 C2 3.67 2 3.34 2 3 C3.65 3 5.3 3 7 3 C7 2.34 7 1.68 7 1 C4.69 1 2.38 1 0 1 C0 0.67 0 0.34 0 0 Z " fill="#505E87" transform="translate(353,566)"/>
<path d="M0 0 C3.63 0 7.26 0 11 0 C10.67 0.99 10.34 1.98 10 3 C6.7 3 3.4 3 0 3 C0 2.01 0 1.02 0 0 Z " fill="#233965" transform="translate(321,556)"/>
<path d="M0 0 C-0.33 1.32 -0.66 2.64 -1 4 C-2.65 4.33 -4.3 4.66 -6 5 C-6 4.01 -6 3.02 -6 2 C-7.98 2 -9.96 2 -12 2 C-12 1.67 -12 1.34 -12 1 C-7.95858806 0.36605303 -4.0934693 -0.12404452 0 0 Z " fill="#41537E" transform="translate(588,586)"/>
<path d="M0 0 C0 0.66 0 1.32 0 2 C-1.6396875 2.4021875 -1.6396875 2.4021875 -3.3125 2.8125 C-6.61692663 3.87663739 -7.94960422 4.34654664 -10 7 C-11 4 -11 4 -10 1 C-6.78548731 -0.60725635 -3.56387464 -0.05748185 0 0 Z " fill="#334976" transform="translate(360,567)"/>
<path d="M0 0 C0.99 0 1.98 0 3 0 C3 1.65 3 3.3 3 5 C3.33 3.35 3.66 1.7 4 0 C4.33 0 4.66 0 5 0 C5.1953125 6.0546875 5.1953125 6.0546875 5 8 C4.34 8.66 3.68 9.32 3 10 C0.875 9.625 0.875 9.625 -1 9 C-0.67 8.67 -0.34 8.34 0 8 C0.07148199 6.64756083 0.08399454 5.29165633 0.0625 3.9375 C0.041875 2.638125 0.02125 1.33875 0 0 Z " fill="#54638A" transform="translate(333,560)"/>
<path d="M0 0 C-3.42094242 2.28062828 -4.68187222 2.21925007 -8.6875 2.125 C-10.17830078 2.09792969 -10.17830078 2.09792969 -11.69921875 2.0703125 C-12.45847656 2.04710937 -13.21773437 2.02390625 -14 2 C-14 1.34 -14 0.68 -14 0 C-9.20699867 -1.39151652 -4.84864218 -0.68662689 0 0 Z " fill="#1E2D5A" transform="translate(660,578)"/>
<path d="M0 0 C0.66 1.32 1.32 2.64 2 4 C0.6875 5.5 0.6875 5.5 -1 7 C-1.99 7 -2.98 7 -4 7 C-3.67 5.02 -3.34 3.04 -3 1 C-2.01 0.67 -1.02 0.34 0 0 Z " fill="#253B6A" transform="translate(614,569)"/>
<path d="M0 0 C2 2 2 2 2.125 5.125 C2.08375 6.07375 2.0425 7.0225 2 8 C0.35 8.33 -1.3 8.66 -3 9 C-2.01 6.03 -1.02 3.06 0 0 Z " fill="#445781" transform="translate(382,594)"/>
<path d="M0 0 C1.9375 0.75 1.9375 0.75 4 2 C4.75 4.125 4.75 4.125 5 6 C3.35 6 1.7 6 0 6 C-0.66 4.68 -1.32 3.36 -2 2 C-1.34 1.34 -0.68 0.68 0 0 Z " fill="#324572" transform="translate(422,569)"/>
<path d="M0 0 C0 0.33 0 0.66 0 1 C-1.98 1 -3.96 1 -6 1 C-6 1.66 -6 2.32 -6 3 C-4.35 3 -2.7 3 -1 3 C-1 3.33 -1 3.66 -1 4 C-3.64 4.66 -6.28 5.32 -9 6 C-9.66 4.68 -10.32 3.36 -11 2 C-7.36576791 -0.32590854 -4.22911669 -0.16265833 0 0 Z " fill="#50618A" transform="translate(657,566)"/>
<path d="M0 0 C2.64 0.33 5.28 0.66 8 1 C8 1.99 8 2.98 8 4 C5.36 4 2.72 4 0 4 C0 2.68 0 1.36 0 0 Z " fill="#213462" transform="translate(574,587)"/>
<path d="M0 0 C0.33 0 0.66 0 1 0 C1.125 3.375 1.125 3.375 1 7 C0.34 7.66 -0.32 8.32 -1 9 C-1.625 6.1875 -1.625 6.1875 -2 3 C-1.34 2.01 -0.68 1.02 0 0 Z M-4 5 C-3.34 5.66 -2.68 6.32 -2 7 C-3.32 7.33 -4.64 7.66 -6 8 C-5.34 7.01 -4.68 6.02 -4 5 Z " fill="#495983" transform="translate(339,578)"/>
<path d="M0 0 C1.26339822 3.79019466 0.49719015 5.37522384 -1 9 C-1.99 9.495 -1.99 9.495 -3 10 C-3 7.36 -3 4.72 -3 2 C-2.34 2 -1.68 2 -1 2 C-0.67 1.34 -0.34 0.68 0 0 Z " fill="#1A3164" transform="translate(405,573)"/>
<path d="M0 0 C0.99 0.33 1.98 0.66 3 1 C2.67 2.65 2.34 4.3 2 6 C1.01 6 0.02 6 -1 6 C-1.625 4.125 -1.625 4.125 -2 2 C-1.34 1.34 -0.68 0.68 0 0 Z " fill="#2D4470" transform="translate(645,569)"/>
<path d="M0 0 C-0.33 0.99 -0.66 1.98 -1 3 C-3.0625 3.6875 -3.0625 3.6875 -5 4 C-5.33 2.68 -5.66 1.36 -6 0 C-3.50907189 -1.24546405 -2.58919267 -0.7767578 0 0 Z " fill="#45567D" transform="translate(679,568)"/>
<path d="M0 0 C0.91007813 0.00902344 1.82015625 0.01804687 2.7578125 0.02734375 C3.45648437 0.03894531 4.15515625 0.05054688 4.875 0.0625 C1.64180553 2.21796298 -0.29396958 2.74324747 -4.125 3.0625 C-5.115 2.4025 -6.105 1.7425 -7.125 1.0625 C-4.60024538 -0.19987731 -2.81299534 -0.03606404 0 0 Z " fill="#3C4974" transform="translate(681.125,576.9375)"/>
<path d="M0 0 C2.64 0 5.28 0 8 0 C7.67 1.32 7.34 2.64 7 4 C5.02 4 3.04 4 1 4 C1.99 3.34 2.98 2.68 4 2 C2.68 1.34 1.36 0.68 0 0 Z " fill="#637094" transform="translate(574,566)"/>
<path d="M0 0 C2.64 0 5.28 0 8 0 C8 1.32 8 2.64 8 4 C5.69 4 3.38 4 1 4 C2.32 3.34 3.64 2.68 5 2 C3.35 1.67 1.7 1.34 0 1 C0 0.67 0 0.34 0 0 Z " fill="#3F527E" transform="translate(519,567)"/>
<path d="M0 0 C1.98 0 3.96 0 6 0 C5.67 0.99 5.34 1.98 5 3 C3.02 3 1.04 3 -1 3 C-0.67 2.01 -0.34 1.02 0 0 Z " fill="#223866" transform="translate(475,588)"/>
<path d="M0 0 C2.64 0 5.28 0 8 0 C7.67 0.99 7.34 1.98 7 3 C4.69 3 2.38 3 0 3 C0 2.01 0 1.02 0 0 Z " fill="#233662" transform="translate(355,588)"/>
<path d="M0 0 C0 3 0 3 -2 5.1875 C-2.66 5.785625 -3.32 6.38375 -4 7 C-4.66 6.67 -5.32 6.34 -6 6 C-2.25 1.125 -2.25 1.125 0 0 Z " fill="#374A76" transform="translate(396,466)"/>
</svg>
